<svg id="Capa_1" data-name="Capa 1" xmlns="http://www.w3.org/2000/svg" viewBox="0 0 244 181"><defs><style>.cls-1{fill:#db1f5d;}.cls-2,.cls-3{fill:#fff;}.cls-3{font-size:15.02px;font-family:SofiaProLight, Sofia Pro;}.cls-4{letter-spacing:0em;}.cls-5{letter-spacing:-0.02em;}.cls-6{letter-spacing:-0.03em;}</style></defs><rect class="cls-1" x="23.47" y="66.89" width="176.16" height="41.23" rx="3.36"/><rect class="cls-1" x="139.81" y="62.82" width="59.22" height="49.58" rx="5.83" transform="translate(257.03 -81.81) rotate(90)"/><rect class="cls-2" x="147.11" y="60.31" width="44.61" height="54.6" rx="3.49"/><path class="cls-1" d="M185.82,98.13v4.4a1,1,0,0,1-1,1H153.64a1,1,0,0,1-1-1v-4.4a1,1,0,0,0-1-1H150.4a1,1,0,0,0-1,1v7.64a1,1,0,0,0,1,1H188a1,1,0,0,0,1-1V98.13a1,1,0,0,0-1-1h-1.18A1,1,0,0,0,185.82,98.13Z"/><path class="cls-1" d="M175.24,84.68V69.18a1,1,0,0,0-1-1H164.16a1,1,0,0,0-.95,1v15.5a1,1,0,0,1-1,1h-6.7a1,1,0,0,0-.67,1.63l13.61,13.39a.94.94,0,0,0,1.33,0l13.71-13.4a1,1,0,0,0-.67-1.63h-6.68A1,1,0,0,1,175.24,84.68Z"/><text class="cls-3" transform="translate(31.18 93.76)">DESCAR<tspan class="cls-4" x="56.33" y="0">G</tspan><tspan class="cls-5" x="67.64" y="0">A</tspan><tspan x="76.41" y="0" xml:space="preserve"> PD</tspan><tspan class="cls-6" x="100.37" y="0">F</tspan></text></svg>